<svg width="1011" height="394" fill="none" xmlns="http://www.w3.org/2000/svg"><path d="m261.5 179 .466.885-.466-.885ZM607 48l-.733.68L607 48Zm215.5 131-.158-.987.158.987ZM785 387.5l10.004 5.767-.008-11.547L785 387.5ZM.524 35.218c.113.502.227 1.003.342 1.503l1.95-.45c-.115-.495-.228-.993-.34-1.492l-1.952.439Zm1.047 4.486c.24.99.483 1.974.731 2.953l1.939-.491c-.247-.973-.489-1.95-.726-2.932l-1.944.47ZM3.06 45.58c.257.97.519 1.934.784 2.893l1.928-.534a267.13 267.13 0 0 1-.779-2.871l-1.933.512Zm1.616 5.829c.284.983.573 1.96.867 2.933l1.915-.578c-.292-.965-.579-1.936-.861-2.911l-1.921.556Zm1.762 5.835c.302.962.61 1.918.921 2.87l1.901-.623c-.31-.944-.614-1.893-.915-2.848l-1.907.6Zm1.873 5.715c.331.973.668 1.94 1.009 2.902l1.885-.669c-.339-.954-.672-1.913-1.001-2.878l-1.893.645Zm2.046 5.77c.35.95.705 1.894 1.064 2.833l1.868-.715c-.356-.931-.708-1.868-1.056-2.81l-1.876.691Zm2.156 5.633c.376.946.757 1.886 1.142 2.82l1.849-.761c-.382-.927-.76-1.86-1.132-2.797l-1.859.738Zm2.325 5.64c.4.935.804 1.863 1.212 2.785l1.829-.81c-.405-.914-.806-1.834-1.202-2.76l-1.838.786Zm2.452 5.534c.421.918.847 1.83 1.278 2.736l1.806-.858a211.21 211.21 0 0 1-1.266-2.712l-1.818.834Zm2.611 5.495c.45.913.904 1.82 1.363 2.72l1.782-.907c-.455-.892-.905-1.791-1.35-2.696l-1.795.883Zm2.753 5.404c.469.89.942 1.774 1.42 2.652l1.756-.957c-.473-.87-.942-1.745-1.407-2.627l-1.77.932Zm2.906 5.335c.5.887 1.005 1.768 1.514 2.643l1.729-1.007a208.82 208.82 0 0 1-1.5-2.618l-1.743.982Zm3.056 5.247a201.15 201.15 0 0 0 1.57 2.565l1.698-1.056a204.37 204.37 0 0 1-1.554-2.54l-1.714 1.031Zm3.207 5.156c.551.857 1.107 1.707 1.667 2.551l1.666-1.106a199.754 199.754 0 0 1-1.65-2.526l-1.683 1.081Zm3.36 5.061c.57.83 1.143 1.653 1.72 2.47l1.633-1.156c-.572-.808-1.14-1.623-1.703-2.445l-1.65 1.131Zm3.51 4.957c.602.822 1.207 1.637 1.818 2.444l1.595-1.205a196.6 196.6 0 0 1-1.798-2.42l-1.614 1.181Zm3.661 4.847c.62.795 1.245 1.584 1.874 2.365l1.558-1.254a192.664 192.664 0 0 1-1.855-2.341l-1.577 1.23Zm3.812 4.734c.65.782 1.305 1.557 1.964 2.324l1.518-1.303c-.652-.759-1.3-1.526-1.944-2.3l-1.538 1.279Zm3.954 4.605a195.86 195.86 0 0 0 2.028 2.25l1.475-1.35a185.644 185.644 0 0 1-2.006-2.227l-1.497 1.327Zm4.109 4.487c.698.738 1.4 1.469 2.106 2.192l1.431-1.398a185.675 185.675 0 0 1-2.084-2.168l-1.453 1.374Zm4.237 4.338c.722.715 1.448 1.423 2.178 2.123l1.384-1.443c-.722-.693-1.44-1.393-2.154-2.101l-1.408 1.421Zm4.396 4.216c.743.69 1.49 1.372 2.241 2.047l1.337-1.488a177.446 177.446 0 0 1-2.218-2.025l-1.36 1.466Zm4.506 4.047c.77.669 1.544 1.33 2.322 1.983l1.286-1.531a178.5 178.5 0 0 1-2.296-1.962l-1.312 1.51Zm4.669 3.922c.786.638 1.576 1.269 2.369 1.891l1.235-1.573a177.633 177.633 0 0 1-2.343-1.871l-1.261 1.553Zm4.77 3.744c.812.615 1.628 1.223 2.447 1.822l1.181-1.613a179.67 179.67 0 0 1-2.42-1.803l-1.208 1.594Zm4.913 3.597c.826.583 1.655 1.159 2.487 1.726l1.127-1.652c-.823-.561-1.643-1.13-2.46-1.707l-1.153 1.633Zm5.019 3.421c.85.559 1.702 1.109 2.558 1.652l1.07-1.69c-.846-.536-1.69-1.08-2.53-1.633l-1.098 1.671Zm5.134 3.254c.864.528 1.731 1.047 2.602 1.558l1.013-1.724a184 184 0 0 1-2.573-1.541l-1.042 1.707Zm5.244 3.081c.883.499 1.77.99 2.658 1.472l.954-1.757a174.15 174.15 0 0 1-2.629-1.457l-.983 1.742Zm5.332 2.896c.902.47 1.806.932 2.713 1.385l.895-1.788c-.897-.449-1.791-.906-2.683-1.371l-.925 1.774Zm5.446 2.724c.913.438 1.829.867 2.747 1.288l.834-1.818c-.908-.416-1.813-.841-2.717-1.274l-.864 1.804Zm5.517 2.531c.932.409 1.865.809 2.8 1.201l.773-1.845a185.82 185.82 0 0 1-2.769-1.187l-.804 1.831Zm5.612 2.35c.939.375 1.88.742 2.823 1.1l.71-1.87c-.932-.354-1.863-.717-2.791-1.087l-.742 1.857Zm5.682 2.158c.955.345 1.912.68 2.869 1.008l.647-1.893c-.947-.323-1.893-.656-2.837-.996l-.679 1.881Zm5.747 1.965c.966.312 1.934.616 2.902.911l.584-1.913c-.958-.292-1.915-.592-2.87-.901l-.616 1.903Zm5.821 1.774c.974.28 1.949.55 2.925.812l.519-1.931c-.965-.259-1.93-.527-2.893-.803l-.551 1.922Zm5.863 1.575c.986.248 1.973.486 2.961.717l.454-1.948c-.977-.228-1.953-.464-2.928-.708l-.487 1.939Zm5.925 1.381c.989.214 1.979.418 2.968.614l.389-1.962a177.7 177.7 0 0 1-2.935-.607l-.422 1.955Zm5.963 1.181c.999.181 1.997.353 2.996.516l.323-1.974c-.988-.161-1.976-.331-2.963-.51l-.356 1.968Zm5.994.98c1.005.147 2.01.286 3.014.416l.257-1.984a169.39 169.39 0 0 1-2.982-.411l-.289 1.979Zm6.035.78c1.006.113 2.013.218 3.019.314l.189-1.991c-.994-.095-1.99-.198-2.985-.31l-.223 1.987Zm6.047.576c1.013.08 2.025.15 3.036.212l.123-1.996c-1-.061-2.002-.131-3.003-.21l-.156 1.994Zm6.069.372c1.012.045 2.023.082 3.034.109l.055-1.999c-.999-.027-1.999-.063-3-.108l-.089 1.998Zm6.079.167c1.014.01 2.027.012 3.039.006l-.014-2c-1 .006-2.001.004-3.004-.006l-.021 2Zm6.071-.041a180.84 180.84 0 0 0 3.046-.098l-.082-1.999c-1.002.041-2.006.074-3.012.098l.048 1.999Zm6.083-.249c1.01-.059 2.018-.127 3.025-.203l-.151-1.994c-.995.075-1.992.142-2.991.2l.117 1.997Zm6.061-.46a167.48 167.48 0 0 0 3.026-.309l-.22-1.988c-.995.111-1.992.213-2.991.306l.185 1.991Zm6.038-.67c1.008-.13 2.014-.269 3.017-.417l-.291-1.978c-.991.146-1.985.283-2.982.411l.256 1.984Zm6.024-.886c.999-.166 1.995-.34 2.989-.522l-.362-1.967c-.982.18-1.966.352-2.954.516l.327 1.973Zm5.977-1.1c.996-.202 1.989-.413 2.978-.632l-.433-1.953c-.977.217-1.958.425-2.942.625l.397 1.96Zm5.936-1.317a169.64 169.64 0 0 0 2.951-.742l-.506-1.935c-.968.253-1.939.497-2.914.732l.469 1.945Zm5.89-1.539c.976-.275 1.948-.558 2.916-.85l-.579-1.915c-.955.288-1.915.568-2.879.84l.542 1.925Zm5.819-1.758c.968-.312 1.931-.634 2.89-.964l-.651-1.891c-.947.326-1.898.643-2.854.952l.615 1.903Zm5.752-1.982c.954-.35 1.903-.708 2.846-1.076l-.726-1.863c-.931.362-1.867.716-2.808 1.061l.688 1.878Zm5.675-2.21c.937-.387 1.87-.783 2.797-1.187l-.8-1.833c-.915.399-1.835.79-2.76 1.171l.763 1.849Zm5.573-2.433c.924-.426 1.842-.862 2.754-1.306l-.875-1.798c-.9.438-1.806.867-2.717 1.288l.838 1.816Zm5.473-2.665c.45-.231.898-.464 1.345-.699l-.932-1.77c-.441.232-.883.462-1.326.69l.913 1.779Zm1.345-.699c.424-.223.85-.455 1.279-.694l-.975-1.746c-.416.232-.827.455-1.236.67l.932 1.77Zm3.889-2.231a86.297 86.297 0 0 0 2.663-1.718l-1.115-1.66c-.88.59-1.746 1.149-2.6 1.677l1.052 1.701Zm5.082-3.394c.815-.582 1.64-1.187 2.473-1.814l-1.203-1.598a116.32 116.32 0 0 1-2.432 1.784l1.162 1.628Zm4.929-3.706c.763-.601 1.534-1.219 2.311-1.854l-1.265-1.549c-.769.627-1.53 1.238-2.283 1.832l1.237 1.571Zm4.664-3.807c.78-.658 1.567-1.33 2.36-2.018l-1.311-1.511c-.786.682-1.566 1.349-2.338 2l1.289 1.529Zm4.581-3.967c.746-.662 1.498-1.337 2.256-2.023l-1.343-1.482c-.753.682-1.5 1.352-2.24 2.009l1.327 1.496Zm4.545-4.117c.724-.669 1.454-1.348 2.188-2.036l-1.368-1.459c-.731.685-1.456 1.36-2.176 2.025l1.356 1.47Zm4.366-4.093c.731-.694 1.466-1.398 2.206-2.11l-1.387-1.441a508.39 508.39 0 0 1-2.197 2.102l1.378 1.449Zm4.425-4.258c.702-.683 1.408-1.374 2.119-2.071l-1.402-1.427c-.708.695-1.412 1.384-2.112 2.065l1.395 1.433Zm4.262-4.185a868.37 868.37 0 0 0 2.166-2.153l-1.412-1.416a721.15 721.15 0 0 1-2.162 2.148l1.408 1.421Zm4.334-4.321c.695-.698 1.394-1.401 2.096-2.109l-1.42-1.408c-.702.707-1.399 1.409-2.093 2.105l1.417 1.412Zm4.213-4.25c.709-.718 1.421-1.441 2.137-2.169l-1.426-1.403c-.715.728-1.426 1.45-2.135 2.168l1.424 1.404Zm4.289-4.361c.691-.704 1.385-1.413 2.082-2.126l-1.429-1.398-2.081 2.124 1.428 1.4Zm4.183-4.275 2.119-2.171-1.432-1.396-2.118 2.17 1.431 1.397Zm4.255-4.362c.697-.713 1.396-1.431 2.097-2.15l-1.432-1.396-2.096 2.15 1.431 1.396Zm4.191-4.297 2.11-2.162-1.431-1.398-2.11 2.163 1.431 1.397Zm4.236-4.338 2.126-2.172-1.429-1.4-2.127 2.174 1.43 1.398Zm4.222-4.31 2.111-2.147-1.425-1.403-2.113 2.149 1.427 1.401Zm4.237-4.302 2.139-2.163-1.42-1.408c-.717.723-1.431 1.445-2.142 2.165l1.423 1.406Zm4.263-4.302c.705-.709 1.412-1.418 2.121-2.128l-1.415-1.414-2.124 2.131 1.418 1.411Zm4.256-4.26c.713-.711 1.429-1.423 2.147-2.134l-1.408-1.42c-.719.712-1.436 1.425-2.151 2.137l1.412 1.417Zm4.308-4.27c.712-.703 1.426-1.405 2.142-2.108l-1.4-1.427c-.718.703-1.433 1.407-2.147 2.11l1.405 1.424Zm4.295-4.212a866.8 866.8 0 0 1 2.165-2.104l-1.391-1.436c-.726.702-1.449 1.405-2.17 2.108l1.396 1.432Zm4.342-4.205c.726-.698 1.455-1.397 2.185-2.094l-1.381-1.447c-.732.7-1.462 1.4-2.19 2.1l1.386 1.441Zm4.366-4.169c.729-.69 1.459-1.38 2.192-2.069l-1.37-1.457c-.735.69-1.467 1.382-2.198 2.075l1.376 1.451Zm4.395-4.132a726.43 726.43 0 0 1 2.214-2.055l-1.358-1.47a731.01 731.01 0 0 0-2.22 2.063l1.364 1.462Zm4.436-4.1a690.83 690.83 0 0 1 2.228-2.032l-1.344-1.481c-.747.678-1.492 1.357-2.235 2.038l1.351 1.474Zm4.466-4.053c.748-.672 1.498-1.342 2.249-2.01l-1.329-1.495c-.754.67-1.506 1.343-2.256 2.017l1.336 1.488Zm4.508-4.008c.756-.665 1.513-1.327 2.271-1.987l-1.312-1.51c-.762.663-1.522 1.328-2.28 1.995l1.321 1.502Zm4.554-3.962c.763-.656 1.527-1.31 2.293-1.96l-1.294-1.524c-.769.653-1.537 1.31-2.302 1.967l1.303 1.517Zm4.596-3.903c.769-.646 1.54-1.288 2.312-1.927l-1.275-1.54c-.776.641-1.55 1.286-2.322 1.934l1.285 1.533Zm4.644-3.844a415.37 415.37 0 0 1 2.347-1.903l-1.254-1.558c-.788.634-1.574 1.271-2.358 1.911l1.265 1.55ZM403 50.106a370.77 370.77 0 0 1 2.365-1.861l-1.231-1.577c-.794.62-1.586 1.244-2.376 1.87L403 50.107Zm4.739-3.7c.8-.615 1.602-1.227 2.405-1.834l-1.206-1.595c-.807.61-1.613 1.225-2.418 1.843l1.219 1.586Zm4.823-3.645c.807-.6 1.616-1.195 2.426-1.786l-1.178-1.616c-.815.595-1.629 1.194-2.441 1.796l1.193 1.606Zm4.861-3.545c.814-.582 1.63-1.16 2.447-1.734l-1.148-1.637c-.823.577-1.643 1.159-2.463 1.745l1.164 1.626Zm4.936-3.462c.83-.57 1.663-1.136 2.496-1.697l-1.116-1.66c-.839.565-1.677 1.134-2.513 1.709l1.133 1.648Zm5.001-3.362c.836-.55 1.674-1.094 2.513-1.633l-1.081-1.683c-.845.543-1.689 1.09-2.531 1.645l1.099 1.67Zm5.053-3.244a267.16 267.16 0 0 1 2.574-1.592l-1.042-1.707c-.866.528-1.731 1.063-2.594 1.604l1.062 1.695Zm5.156-3.146c.862-.512 1.725-1.018 2.589-1.517l-.999-1.732c-.872.503-1.742 1.013-2.611 1.529l1.021 1.72Zm5.186-2.993c.882-.494 1.765-.98 2.649-1.46l-.954-1.758c-.892.484-1.783.975-2.672 1.473l.977 1.745Zm5.313-2.881c.89-.466 1.78-.925 2.672-1.377l-.903-1.784c-.9.456-1.8.919-2.697 1.39l.928 1.771Zm5.351-2.707c.9-.439 1.802-.87 2.704-1.292l-.848-1.812a194.3 194.3 0 0 0-2.732 1.306l.876 1.798Zm5.454-2.553a180.06 180.06 0 0 1 2.756-1.21l-.788-1.837c-.93.398-1.859.806-2.787 1.222l.819 1.825Zm5.519-2.365c.922-.377 1.845-.744 2.769-1.103l-.723-1.864c-.935.362-1.869.734-2.802 1.115l.756 1.852Zm5.596-2.168c.945-.346 1.891-.682 2.838-1.009l-.652-1.89c-.959.33-1.917.67-2.874 1.02l.688 1.879Zm5.681-1.957a145.52 145.52 0 0 1 2.85-.887l-.574-1.915c-.965.289-1.928.588-2.889.899l.613 1.903Zm5.734-1.718a136.42 136.42 0 0 1 2.91-.772l-.491-1.938c-.986.25-1.97.51-2.953.782l.534 1.928Zm5.825-1.475a128.27 128.27 0 0 1 2.92-.634l-.402-1.96c-.989.203-1.978.418-2.965.645l.447 1.949Zm5.856-1.2c.987-.177 1.974-.343 2.963-.496l-.306-1.976c-1.005.155-2.009.323-3.012.504l.355 1.968Zm5.93-.917c.99-.128 1.98-.243 2.972-.345l-.205-1.99c-1.009.104-2.016.221-3.023.351l.256 1.984Zm5.949-.612c.994-.076 1.99-.138 2.986-.188L507.85.271c-1.014.05-2.027.114-3.04.19l.153 1.995Zm5.977-.294c.997-.022 1.995-.03 2.994-.024l.012-2c-1.018-.006-2.034.002-3.05.024l.044 2Zm5.992.035c.991.034 1.982.082 2.974.144l.125-1.996A107.092 107.092 0 0 0 517 .199l-.068 1.998Zm5.95.373c.993.09 1.985.196 2.979.315L526.1.9c-1.012-.122-2.025-.23-3.036-.322l-.182 1.992Zm5.961.719c.978.147 1.957.308 2.936.484l.354-1.969a100.81 100.81 0 0 0-2.993-.493l-.297 1.978Zm5.853 1.051c.973.204 1.946.422 2.919.656l.466-1.945c-.992-.238-1.984-.46-2.975-.668l-.41 1.957Zm5.842 1.4c.961.26 1.923.534 2.885.824l.576-1.915c-.98-.295-1.96-.575-2.94-.84l-.521 1.931Zm5.699 1.713c.939.31 1.878.635 2.817.975l.68-1.88c-.956-.346-1.912-.677-2.868-.994l-.629 1.899Zm5.635 2.038c.94.369 1.88.753 2.82 1.152l.781-1.842a121.03 121.03 0 0 0-2.87-1.172l-.731 1.862Zm5.519 2.337c.892.406 1.783.825 2.676 1.258l.873-1.8a119.74 119.74 0 0 0-2.721-1.278l-.828 1.82Zm5.352 2.598c.893.46 1.786.935 2.678 1.424l.961-1.755c-.907-.496-1.814-.979-2.721-1.447l-.918 1.778Zm5.346 2.926c.836.485 1.672.981 2.508 1.49l1.041-1.708a137.081 137.081 0 0 0-2.546-1.512l-1.003 1.73Zm5.017 3.057c.836.535 1.672 1.082 2.509 1.643l1.114-1.661a141.92 141.92 0 0 0-2.546-1.667l-1.077 1.685Zm5.019 3.364a154.78 154.78 0 0 1 2.51 1.8l1.182-1.612a148.94 148.94 0 0 0-2.544-1.825l-1.148 1.637Zm4.841 3.544c.775.591 1.55 1.194 2.326 1.808l1.242-1.567c-.785-.622-1.57-1.233-2.356-1.832l-1.212 1.59Zm4.652 3.686c.775.638 1.55 1.288 2.326 1.95l1.298-1.522a173 173 0 0 0-2.354-1.972l-1.27 1.544Zm4.652 3.97a192.07 192.07 0 0 1 2.237 2.01l1.349-1.476a185.936 185.936 0 0 0-2.262-2.033l-1.324 1.498Zm4.376 3.997c.713.672 1.426 1.355 2.139 2.048l1.394-1.434c-.72-.7-1.44-1.39-2.161-2.07l-1.372 1.456Zm4.278 4.158c.713.714 1.425 1.439 2.138 2.174l1.436-1.392a213.48 213.48 0 0 0-2.159-2.195l-1.415 1.413Zm4.275 4.41c.356.379.712.76 1.068 1.143l1.466-1.361c-.359-.387-.719-.771-1.078-1.153l-1.456 1.372Zm1.068 1.143 1.024 1.105 1.469-1.356-1.027-1.11-1.466 1.36Zm3.053 3.315c.672.736 1.34 1.472 2.004 2.207l1.484-1.34a575.514 575.514 0 0 0-2.011-2.215l-1.477 1.348Zm3.995 4.421c.669.75 1.335 1.498 1.997 2.245l1.497-1.326c-.664-.75-1.332-1.5-2.004-2.252l-1.49 1.333Zm3.971 4.485c.655.747 1.306 1.493 1.954 2.238l1.509-1.312a723.303 723.303 0 0 0-1.959-2.244l-1.504 1.318Zm3.922 4.513c.653.757 1.302 1.513 1.948 2.268l1.52-1.3a771.981 771.981 0 0 0-1.952-2.274l-1.516 1.306Zm3.874 4.53c.651.767 1.298 1.533 1.941 2.297l1.53-1.29a840.59 840.59 0 0 0-1.946-2.3l-1.525 1.294Zm3.866 4.588c.638.763 1.273 1.524 1.905 2.283l1.538-1.28c-.634-.76-1.27-1.523-1.91-2.287l-1.533 1.284Zm3.824 4.595c.639.771 1.274 1.54 1.907 2.308l1.543-1.271c-.633-.77-1.27-1.54-1.909-2.313l-1.541 1.276Zm3.797 4.606c.638.777 1.272 1.552 1.905 2.325l1.548-1.267-1.907-2.326-1.546 1.269Zm3.8 4.644 1.88 2.306 1.551-1.263-1.882-2.308-1.549 1.265Zm3.779 4.638 1.891 2.323 1.551-1.263-1.891-2.322-1.551 1.262Zm3.769 4.63 1.903 2.335 1.55-1.264a5360.55 5360.55 0 0 1-1.902-2.334l-1.551 1.263Zm3.797 4.653c.631.772 1.261 1.541 1.89 2.307l1.546-1.269c-.628-.764-1.257-1.533-1.888-2.304l-1.548 1.266Zm3.803 4.633c.636.771 1.271 1.54 1.905 2.305l1.54-1.277c-.633-.763-1.267-1.53-1.902-2.301l-1.543 1.273Zm3.818 4.605c.645.772 1.289 1.541 1.932 2.305l1.531-1.287a686.564 686.564 0 0 1-1.927-2.3l-1.536 1.282Zm3.86 4.588c.65.765 1.299 1.527 1.948 2.284l1.519-1.301a673.822 673.822 0 0 1-1.942-2.277l-1.525 1.294Zm3.91 4.559c.653.754 1.307 1.504 1.961 2.249l1.503-1.32a497.368 497.368 0 0 1-1.953-2.239l-1.511 1.31Zm3.958 4.507a444 444 0 0 0 2.002 2.233l1.484-1.342a335.88 335.88 0 0 1-1.992-2.221l-1.494 1.33Zm4.02 4.446c.682.741 1.364 1.478 2.048 2.209l1.46-1.367a336.173 336.173 0 0 1-2.036-2.196l-1.472 1.354Zm4.105 4.384c.694.728 1.391 1.45 2.089 2.166l1.432-1.396a283.828 283.828 0 0 1-2.075-2.151l-1.446 1.381Zm4.2 4.307c.707.709 1.416 1.411 2.128 2.108l1.398-1.43c-.705-.69-1.409-1.387-2.11-2.091l-1.416 1.413Zm4.297 4.204c.726.692 1.455 1.377 2.186 2.056l1.36-1.467a227.763 227.763 0 0 1-2.166-2.037l-1.38 1.448Zm4.409 4.086c.747.673 1.498 1.339 2.252 1.997l1.315-1.506a204.704 204.704 0 0 1-2.229-1.977l-1.338 1.486Zm4.53 3.953c.77.65 1.544 1.292 2.322 1.926l1.264-1.55a185.183 185.183 0 0 1-2.296-1.904l-1.29 1.528Zm4.67 3.805c.791.622 1.587 1.235 2.387 1.839l1.206-1.596a150.802 150.802 0 0 1-2.357-1.816l-1.236 1.573Zm4.809 3.632c.814.589 1.632 1.17 2.456 1.742l1.14-1.643a147.851 147.851 0 0 1-2.422-1.719l-1.174 1.62Zm4.951 3.435c.838.555 1.681 1.102 2.531 1.639l1.068-1.691a130.89 130.89 0 0 1-2.493-1.615l-1.106 1.667Zm5.096 3.22c.861.518 1.728 1.026 2.603 1.525l.99-1.737c-.86-.491-1.715-.992-2.563-1.502l-1.03 1.714Zm5.24 2.988c.883.477 1.772.943 2.669 1.4l.907-1.783c-.882-.449-1.758-.908-2.626-1.377l-.95 1.76Zm5.381 2.74c.902.431 1.811.853 2.728 1.265l.819-1.824c-.901-.405-1.796-.82-2.683-1.245l-.864 1.804Zm5.499 2.47c.924.388 1.856.766 2.795 1.134l.729-1.863c-.924-.361-1.841-.733-2.75-1.115l-.774 1.844Zm5.612 2.197c.947.344 1.902.677 2.866 1.001l.636-1.896a123.04 123.04 0 0 1-2.819-.985l-.683 1.88Zm5.718 1.92c.958.296 1.923.582 2.898.857l.544-1.924c-.959-.271-1.909-.552-2.851-.844l-.591 1.911Zm5.816 1.646c.963.247 1.934.485 2.913.713l.454-1.948c-.965-.224-1.921-.458-2.868-.702l-.499 1.937Zm5.877 1.367c.974.203 1.955.397 2.945.58l.365-1.966c-.976-.181-1.943-.372-2.901-.572l-.409 1.958Zm5.908 1.096c.996.163 2 .315 3.014.458l.279-1.98a134.82 134.82 0 0 1-2.971-.452l-.322 1.974Zm5.967.844c.991.119 1.989.229 2.996.33l.199-1.991c-.994-.099-1.979-.207-2.956-.325l-.239 1.986Zm6.032.602c.979.079 1.967.149 2.963.21l.122-1.997c-.983-.06-1.959-.129-2.926-.206l-.159 1.993Zm5.974.367c1.008.043 2.023.078 3.047.103l.051-1.999c-1.013-.025-2.017-.06-3.012-.102l-.086 1.998Zm6.012.153c.995.009 1.999.009 3.01.001l-.016-2c-1 .008-1.993.008-2.977-.001l-.017 2Zm6.067-.048c.979-.024 1.966-.055 2.96-.094l-.079-1.998c-.983.038-1.96.069-2.929.092l.048 2Zm5.955-.233c1.006-.054 2.019-.116 3.039-.185l-.135-1.996c-1.012.069-2.015.13-3.012.184l.108 1.997Zm6.021-.409c.982-.08 1.971-.167 2.967-.262l-.188-1.991c-.988.094-1.969.18-2.942.26l.163 1.993Zm5.977-.567c1.001-.107 2.009-.222 3.024-.344l-.238-1.986c-1.007.121-2.007.235-3 .342l.214 1.988Zm5.954-.713c.983-.13 1.973-.266 2.969-.408l-.283-1.98c-.989.141-1.972.276-2.947.405l.261 1.983Zm5.978-.856c.505-.078 1.012-.158 1.52-.239l-.316-1.975c-.505.08-1.008.16-1.509.237l.305 1.977Zm1.52-.239c.44-.071.889-.133 1.347-.187l-.234-1.986a34.41 34.41 0 0 0-1.429.198l.316 1.975Zm4.21-.415a48.707 48.707 0 0 1 3.077-.036l.037-2a51.205 51.205 0 0 0-3.202.038l.088 1.998Zm5.91.085c.956.064 1.935.149 2.936.258l.214-1.989a72.406 72.406 0 0 0-3.018-.264l-.132 1.995Zm6.003.648c.929.136 1.875.289 2.836.459l.348-1.97a99.616 99.616 0 0 0-2.895-.468l-.289 1.979Zm5.725 1.01c.978.201 1.97.417 2.975.649l.45-1.948a124.157 124.157 0 0 0-3.024-.66l-.401 1.959Zm5.888 1.357c.928.236 1.866.485 2.813.746l.531-1.928c-.959-.265-1.91-.517-2.85-.756l-.494 1.938Zm5.685 1.566c.967.285 1.943.583 2.927.892l.6-1.908c-.995-.313-1.982-.614-2.96-.903l-.567 1.919Zm5.75 1.804c.92.305 1.846.62 2.779.944l.657-1.889c-.942-.327-1.877-.645-2.807-.953l-.629 1.898Zm5.597 1.946c.945.344 1.896.697 2.853 1.059l.708-1.87c-.965-.365-1.924-.722-2.878-1.068l-.683 1.879Zm5.649 2.138c.906.356 1.816.72 2.73 1.092l.753-1.853c-.921-.375-1.839-.741-2.752-1.1l-.731 1.861Zm5.485 2.23c.922.387 1.847.782 2.776 1.184l.795-1.835c-.936-.405-1.868-.803-2.797-1.193l-.774 1.844Zm5.566 2.41c.89.397 1.784.8 2.679 1.21l.833-1.818c-.902-.413-1.801-.819-2.698-1.219l-.814 1.827Zm5.373 2.46c.9.423 1.802.852 2.706 1.287l.868-1.802c-.91-.438-1.818-.87-2.724-1.295l-.85 1.81Zm5.423 2.612c.895.442 1.791.889 2.689 1.343l.902-1.786a309.63 309.63 0 0 0-2.706-1.35l-.885 1.793Zm5.328 2.69c.88.455 1.761.915 2.643 1.381l.934-1.769a357.28 357.28 0 0 0-2.66-1.389l-.917 1.777Zm5.29 2.793c.883.476 1.766.957 2.649 1.443l.964-1.752c-.888-.489-1.776-.973-2.664-1.452l-.949 1.761Zm5.264 2.898c.864.485 1.727.974 2.589 1.469l.995-1.735c-.868-.498-1.736-.99-2.604-1.478l-.98 1.744Zm5.175 2.966a311.21 311.21 0 0 1 2.582 1.524l1.024-1.718c-.865-.516-1.73-1.026-2.596-1.533l-1.01 1.727Zm5.157 3.074c.851.517 1.702 1.039 2.551 1.565l1.053-1.7a346.328 346.328 0 0 0-2.565-1.574l-1.039 1.709Zm5.084 3.149c.842.532 1.683 1.068 2.522 1.608l1.082-1.682a339.14 339.14 0 0 0-2.537-1.617l-1.067 1.691Zm5.031 3.239c.835.547 1.667 1.098 2.497 1.653l1.111-1.663a330.477 330.477 0 0 0-2.511-1.663l-1.097 1.673Zm4.98 3.329c.826.563 1.649 1.129 2.469 1.698l1.141-1.642a352.13 352.13 0 0 0-2.483-1.709l-1.127 1.653Zm4.919 3.417c.813.576 1.623 1.155 2.43 1.738l1.171-1.621c-.812-.587-1.627-1.17-2.445-1.749l-1.156 1.632Zm4.839 3.495c.806.594 1.609 1.191 2.407 1.791l1.202-1.598a317.08 317.08 0 0 0-2.423-1.803l-1.186 1.61Zm4.8 3.608c.793.609 1.582 1.22 2.366 1.834l1.233-1.574a278.626 278.626 0 0 0-2.382-1.847l-1.217 1.587Zm4.703 3.685a253.53 253.53 0 0 1 2.308 1.866l1.266-1.549a292.59 292.59 0 0 0-2.324-1.879l-1.25 1.562Zm4.628 3.783c.772.646 1.538 1.293 2.298 1.943l1.3-1.519a280.587 280.587 0 0 0-2.315-1.958l-1.283 1.534Zm4.56 3.901c.747.655 1.489 1.312 2.223 1.971l1.336-1.489a241.953 241.953 0 0 0-2.242-1.987l-1.317 1.505Zm4.408 3.954c.746.687 1.486 1.376 2.218 2.068l1.373-1.455a225.447 225.447 0 0 0-2.238-2.085l-1.353 1.472Zm4.391 4.148c.717.695 1.425 1.392 2.126 2.091l1.413-1.415c-.707-.706-1.423-1.41-2.146-2.111l-1.393 1.435Zm4.201 4.193c.695.714 1.381 1.43 2.058 2.148l1.454-1.373a199.722 199.722 0 0 0-2.079-2.17l-1.433 1.395Zm4.119 4.369a169.59 169.59 0 0 1 2 2.23l1.501-1.323a173.58 173.58 0 0 0-2.024-2.255l-1.477 1.348Zm3.937 4.467c.635.747 1.259 1.495 1.872 2.243l1.547-1.266c-.62-.759-1.252-1.516-1.895-2.272l-1.524 1.295Zm3.774 4.618c.623.795 1.233 1.59 1.83 2.386l1.6-1.199a136.988 136.988 0 0 0-1.856-2.421l-1.574 1.234Zm3.578 4.776c.569.797 1.125 1.594 1.665 2.392l1.656-1.123c-.55-.811-1.115-1.622-1.693-2.431l-1.628 1.162Zm3.326 4.913c.546.852 1.074 1.704 1.585 2.556l1.715-1.028a103.487 103.487 0 0 0-1.615-2.606l-1.685 1.078Zm3.064 5.111c.476.851.932 1.701 1.372 2.55l1.78-.918c-.45-.869-.92-1.739-1.41-2.608l-1.742.976Zm2.712 5.262c.43.91.84 1.819 1.22 2.726l1.84-.78c-.39-.932-.81-1.865-1.25-2.798l-1.81.852Zm2.31 5.442c.34.92.66 1.838.96 2.753l1.9-.617c-.3-.945-.64-1.891-.99-2.838l-1.87.702Zm1.81 5.632c.26.957.49 1.911.69 2.862l1.96-.413c-.21-.987-.45-1.976-.72-2.967l-1.93.518Zm1.2 5.703c.15.985.27 1.967.36 2.943l1.99-.172a46.273 46.273 0 0 0-.37-3.07l-1.98.299Zm.51 5.88c.02.974 0 1.943-.05 2.908l2 .104c.05-1.012.07-2.029.05-3.05l-2 .038Zm-.31 5.807c-.12.965-.28 1.925-.47 2.879l1.95.403c.21-1.005.38-2.015.51-3.03l-1.99-.252Zm-1.18 5.725c-.26.925-.57 1.844-.91 2.758l1.88.7c.35-.961.67-1.93.96-2.904l-1.93-.554Zm-2.02 5.418c-.4.882-.85 1.757-1.33 2.627l1.75.969c.51-.912.97-1.832 1.4-2.758l-1.82-.838Zm-2.87 5.188a47.8 47.8 0 0 1-1.61 2.318l1.6 1.194c.6-.801 1.16-1.608 1.69-2.422l-1.68-1.09Zm-3.427 4.605a51.839 51.839 0 0 1-2.013 2.253l1.453 1.374a54.038 54.038 0 0 0 2.09-2.339l-1.53-1.288Zm-4.098 4.343a62.262 62.262 0 0 1-2.098 1.908l1.311 1.51a64.241 64.241 0 0 0 2.166-1.969l-1.379-1.449Zm-4.359 3.786a73.666 73.666 0 0 1-2.426 1.847l1.178 1.616a73.881 73.881 0 0 0 2.492-1.898l-1.244-1.565Zm-4.923 3.597a86.322 86.322 0 0 1-2.354 1.529l1.064 1.694a91.903 91.903 0 0 0 2.407-1.564l-1.117-1.659Zm-4.834 3.033c-.848.498-1.718.99-2.609 1.478l.961 1.754a104.13 104.13 0 0 0 2.659-1.506l-1.011-1.726Zm-5.348 2.929c-.886.455-1.793.905-2.719 1.35l.867 1.803c.941-.453 1.862-.911 2.764-1.373l-.912-1.78Zm-5.268 2.543c-.865.394-1.748.785-2.646 1.171l.791 1.837a141.69 141.69 0 0 0 2.684-1.188l-.829-1.82Zm-5.392 2.321c-.931.379-1.88.755-2.845 1.127l.719 1.866c.977-.376 1.937-.757 2.881-1.141l-.755-1.852Zm-5.791 2.231c-.912.333-1.838.662-2.779.988l.655 1.889c.95-.329 1.887-.662 2.809-.998l-.685-1.879Zm-5.463 1.896c-.907.3-1.827.597-2.76.891l.602 1.907c.941-.296 1.87-.596 2.786-.899l-.628-1.899Zm-5.596 1.763c-.958.288-1.929.573-2.913.855l.55 1.922c.992-.284 1.972-.571 2.938-.861l-.575-1.916Zm-5.905 1.69c-1.01.276-2.033.548-3.069.817l.502 1.936a253.87 253.87 0 0 0 3.093-.823l-.526-1.93Zm-5.825 1.517c-.914.228-1.838.452-2.771.675l.463 1.945c.94-.223 1.87-.45 2.79-.679l-.482-1.941Zm-5.602 1.334c-.953.218-1.917.433-2.89.645l.426 1.954c.98-.214 1.949-.43 2.909-.649l-.445-1.95Zm-5.841 1.275c-.993.207-1.997.412-3.011.614l.391 1.962c1.02-.204 2.03-.41 3.029-.618l-.409-1.958Zm-6.083 1.214c-1.019.194-2.047.385-3.086.574l.358 1.968a386.85 386.85 0 0 0 3.102-.578l-.374-1.964Zm-5.861 1.069c-.933.163-1.874.324-2.822.483l.33 1.973c.953-.16 1.899-.322 2.836-.486l-.344-1.97Zm-5.692.954a441.1 441.1 0 0 1-2.917.458l.304 1.977c.985-.151 1.962-.305 2.93-.46l-.317-1.975Zm-5.881.904c-.997.147-2.001.291-3.013.434l.278 1.98c1.017-.143 2.025-.288 3.026-.435l-.291-1.979Zm-6.074.854c-1.029.139-2.065.275-3.11.408l.254 1.984c1.049-.134 2.09-.271 3.122-.409l-.266-1.983Zm-6.201.795c-.931.114-1.867.226-2.81.337l.232 1.986c.947-.111 1.887-.223 2.821-.337l-.243-1.986Zm-5.658.663c-.956.107-1.918.212-2.886.316l.212 1.988c.972-.104 1.937-.209 2.896-.317l-.222-1.987Zm-5.811.621c-.981.1-1.968.199-2.962.296l.193 1.99c.997-.097 1.988-.196 2.972-.296l-.203-1.99Zm-5.964.58c-1.007.094-2.02.185-3.04.275l.175 1.992a752.3 752.3 0 0 0 3.05-.275l-.185-1.992Zm-6.119.539c-1.033.086-2.072.17-3.118.253l.157 1.994a811.56 811.56 0 0 0 3.127-.254l-.166-1.993Zm-6.276.495c-.94.071-1.884.139-2.834.207l.141 1.995c.952-.068 1.9-.137 2.842-.207l-.149-1.995Zm-5.69.403c-.958.065-1.92.127-2.888.189l.127 1.996c.97-.062 1.935-.125 2.894-.189l-.133-1.996Zm-5.806.368c-.978.059-1.961.116-2.95.172l.112 1.996c.991-.055 1.977-.112 2.957-.171l-.119-1.997Zm-5.931.334c-.999.053-2.004.104-3.013.153l.098 1.998c1.012-.05 2.019-.101 3.02-.154l-.105-1.997Zm-6.058.298c-1.02.047-2.045.092-3.076.136l.085 1.998c1.033-.044 2.06-.089 3.083-.136l-.092-1.998Zm-6.184.263c-1.042.041-2.089.08-3.141.118l.072 1.998c1.054-.037 2.103-.077 3.147-.118l-.078-1.998Zm-6.159.222c-.946.031-1.897.061-2.852.089l.06 1.999c.957-.028 1.91-.058 2.858-.09l-.066-1.998Zm-5.73.172c-.963.026-1.931.051-2.903.075l.049 1.999c.974-.024 1.944-.049 2.909-.075l-.055-1.999Zm-5.832.143c-.981.021-1.966.041-2.956.06l.038 2c.992-.019 1.978-.039 2.961-.061l-.043-1.999Zm-5.937.113c-.998.016-2.001.032-3.008.046l.028 1.999c1.008-.014 2.013-.029 3.013-.045l-.033-2Zm-6.042.084c-1.015.011-2.035.021-3.06.03l.018 2c1.026-.009 2.047-.019 3.065-.031l-.023-1.999Zm-6.146.053c-1.034.006-2.071.012-3.113.015l.007 2c1.044-.004 2.083-.009 3.118-.015l-.012-2Z" fill="#717171"/></svg>