<svg width="1011" height="394" viewBox="0 0 1011 394" fill="none" xmlns="http://www.w3.org/2000/svg">
<path d="M261.5 179L261.966 179.885L261.5 179ZM607 48.0004L606.267 48.6809L607 48.0004ZM822.5 179L822.342 178.013L822.5 179ZM785 387.5L795.004 393.267L794.996 381.72L785 387.5ZM0.524339 35.218C0.637216 35.7202 0.75123 36.2212 0.866375 36.7209L2.8153 36.2718C2.70097 35.7756 2.58775 35.2781 2.47566 34.7794L0.524339 35.218ZM1.57079 39.704C1.81009 40.6934 2.05387 41.6777 2.30209 42.6571L4.24079 42.1657C3.99436 41.1934 3.75233 40.2162 3.51473 39.2338L1.57079 39.704ZM3.06003 45.5801C3.31708 46.5495 3.57853 47.5138 3.84432 48.4732L5.77172 47.9392C5.5079 46.9869 5.24838 46.0297 4.99321 45.0675L3.06003 45.5801ZM4.67559 51.4086C4.9601 52.3917 5.24922 53.3696 5.54291 54.3421L7.45751 53.7639C7.16607 52.7988 6.87913 51.8284 6.59677 50.8526L4.67559 51.4086ZM6.43763 57.2437C6.7404 58.2056 7.04768 59.1621 7.35944 60.1134L9.25998 59.4905C8.95067 58.5467 8.64578 57.5976 8.34535 56.6432L6.43763 57.2437ZM8.31071 62.9591C8.64233 63.9319 8.97868 64.8991 9.3197 65.8606L11.2047 65.192C10.8664 64.2383 10.5327 63.2789 10.2037 62.3138L8.31071 62.9591ZM10.3567 68.7282C10.707 69.6784 11.0619 70.623 11.4214 71.562L13.2892 70.8469C12.9327 69.9157 12.5807 68.9789 12.2332 68.0364L10.3567 68.7282ZM12.5134 74.362C12.8892 75.308 13.2696 76.2482 13.6547 77.1826L15.5038 76.4205C15.122 75.494 14.7447 74.5618 14.3721 73.6237L12.5134 74.362ZM14.8385 80.0027C15.2378 80.9369 15.6418 81.865 16.0504 82.7872L17.879 81.9771C17.4739 81.0629 17.0734 80.1427 16.6775 79.2166L14.8385 80.0027ZM17.29 85.5361C17.7112 86.454 18.1371 87.366 18.5676 88.2719L20.374 87.4136C19.9474 86.5157 19.5253 85.6118 19.1077 84.7019L17.29 85.5361ZM19.9015 91.0306C20.3509 91.9439 20.805 92.8509 21.2637 93.7517L23.046 92.8441C22.5914 91.9515 22.1414 91.0527 21.6961 90.1476L19.9015 91.0306ZM22.6538 96.4354C23.1226 97.3254 23.5961 98.2093 24.0741 99.0868L25.8304 98.1302C25.3569 97.2608 24.8878 96.3851 24.4233 95.5033L22.6538 96.4354ZM25.5601 101.77C26.0602 102.657 26.565 103.538 27.0744 104.413L28.8026 103.406C28.298 102.54 27.798 101.667 27.3027 100.788L25.5601 101.77ZM28.6163 107.017C29.1349 107.879 29.6579 108.734 30.1855 109.582L31.884 108.526C31.3615 107.686 30.8434 106.839 30.3298 105.986L28.6163 107.017ZM31.8233 112.173C32.3741 113.03 32.9296 113.88 33.4897 114.724L35.1559 113.618C34.6014 112.783 34.0513 111.941 33.5058 111.092L31.8233 112.173ZM35.1833 117.234C35.7524 118.064 36.3259 118.887 36.9039 119.704L38.5362 118.548C37.9641 117.74 37.3962 116.925 36.8328 116.103L35.1833 117.234ZM38.6936 122.191C39.2947 123.013 39.9004 123.828 40.5105 124.635L42.1064 123.43C41.5025 122.63 40.903 121.824 40.3079 121.01L38.6936 122.191ZM42.354 127.038C42.9745 127.833 43.5993 128.622 44.2283 129.403L45.7862 128.149C45.1636 127.376 44.5452 126.595 43.9312 125.808L42.354 127.038ZM46.1662 131.772C46.8166 132.554 47.4714 133.329 48.1304 134.096L49.6478 132.793C48.9956 132.034 48.3477 131.267 47.7041 130.493L46.1662 131.772ZM50.1202 136.377C50.7918 137.134 51.4677 137.884 52.1477 138.627L53.6229 137.277C52.9501 136.542 52.2813 135.8 51.6167 135.05L50.1202 136.377ZM54.229 140.864C54.9269 141.602 55.6291 142.333 56.3353 143.056L57.766 141.658C57.0673 140.943 56.3727 140.22 55.6821 139.49L54.229 140.864ZM58.466 145.202C59.1878 145.917 59.9137 146.625 60.6435 147.325L62.028 145.882C61.306 145.189 60.5879 144.489 59.8739 143.781L58.466 145.202ZM62.8617 149.418C63.605 150.108 64.3523 150.79 65.1034 151.465L66.4397 149.977C65.6968 149.31 64.9576 148.635 64.2223 147.952L62.8617 149.418ZM67.368 153.465C68.1381 154.134 68.9121 154.795 69.6897 155.448L70.9761 153.917C70.2069 153.271 69.4414 152.617 68.6797 151.955L67.368 153.465ZM72.0369 157.387C72.823 158.025 73.6127 158.656 74.4058 159.278L75.6406 157.705C74.8561 157.089 74.0751 156.466 73.2976 155.834L72.0369 157.387ZM76.8071 161.131C77.6192 161.746 78.4347 162.354 79.2537 162.953L80.4351 161.34C79.6252 160.747 78.8186 160.146 78.0155 159.537L76.8071 161.131ZM81.7205 164.728C82.5462 165.311 83.3751 165.887 84.2071 166.454L85.3339 164.802C84.511 164.241 83.6913 163.672 82.8748 163.095L81.7205 164.728ZM86.7386 168.149C87.5881 168.708 88.4408 169.258 89.2966 169.801L90.3671 168.111C89.5208 167.575 88.6776 167.031 87.8374 166.478L86.7386 168.149ZM91.8727 171.403C92.7372 171.931 93.6045 172.45 94.4747 172.961L95.4879 171.237C94.6273 170.731 93.7696 170.218 92.9147 169.696L91.8727 171.403ZM97.1167 174.484C98.0001 174.983 98.8863 175.474 99.775 175.956L100.729 174.199C99.8505 173.722 98.9742 173.236 98.1005 172.742L97.1167 174.484ZM102.449 177.38C103.351 177.85 104.255 178.312 105.162 178.765L106.057 176.977C105.16 176.528 104.266 176.071 103.374 175.606L102.449 177.38ZM107.895 180.104C108.808 180.542 109.724 180.971 110.642 181.392L111.476 179.574C110.568 179.158 109.663 178.733 108.759 178.3L107.895 180.104ZM113.412 182.635C114.344 183.044 115.277 183.444 116.212 183.836L116.985 181.991C116.06 181.603 115.137 181.208 114.216 180.804L113.412 182.635ZM119.024 184.985C119.963 185.36 120.904 185.727 121.847 186.085L122.557 184.215C121.625 183.861 120.694 183.498 119.766 183.128L119.024 184.985ZM124.706 187.143C125.661 187.488 126.618 187.823 127.575 188.151L128.222 186.258C127.275 185.935 126.329 185.602 125.385 185.262L124.706 187.143ZM130.453 189.108C131.419 189.42 132.387 189.724 133.355 190.019L133.939 188.106C132.981 187.814 132.024 187.514 131.069 187.205L130.453 189.108ZM136.274 190.882C137.248 191.162 138.223 191.432 139.199 191.694L139.718 189.763C138.753 189.504 137.788 189.236 136.825 188.96L136.274 190.882ZM142.137 192.457C143.123 192.705 144.11 192.943 145.098 193.174L145.552 191.226C144.575 190.998 143.599 190.762 142.624 190.518L142.137 192.457ZM148.062 193.838C149.051 194.052 150.041 194.256 151.03 194.452L151.419 192.49C150.44 192.296 149.462 192.094 148.484 191.883L148.062 193.838ZM154.025 195.019C155.024 195.2 156.022 195.372 157.021 195.535L157.344 193.561C156.356 193.4 155.368 193.23 154.381 193.051L154.025 195.019ZM160.019 195.999C161.024 196.146 162.029 196.285 163.033 196.415L163.29 194.431C162.296 194.303 161.302 194.166 160.308 194.02L160.019 195.999ZM166.054 196.779C167.06 196.892 168.067 196.997 169.073 197.093L169.262 195.102C168.268 195.007 167.272 194.904 166.277 194.792L166.054 196.779ZM172.101 197.355C173.114 197.435 174.126 197.505 175.137 197.567L175.26 195.571C174.26 195.51 173.258 195.44 172.257 195.361L172.101 197.355ZM178.17 197.727C179.182 197.772 180.193 197.809 181.204 197.836L181.259 195.837C180.26 195.81 179.26 195.774 178.259 195.729L178.17 197.727ZM184.249 197.894C185.263 197.904 186.276 197.906 187.288 197.9L187.274 195.9C186.274 195.906 185.273 195.904 184.27 195.894L184.249 197.894ZM190.32 197.853C191.337 197.829 192.353 197.796 193.366 197.755L193.284 195.756C192.282 195.797 191.278 195.83 190.272 195.854L190.32 197.853ZM196.403 197.604C197.413 197.545 198.421 197.477 199.428 197.401L199.277 195.407C198.282 195.482 197.285 195.549 196.286 195.607L196.403 197.604ZM202.464 197.144C203.475 197.05 204.484 196.947 205.49 196.835L205.27 194.847C204.275 194.958 203.278 195.06 202.279 195.153L202.464 197.144ZM208.502 196.474C209.51 196.344 210.516 196.205 211.519 196.057L211.228 194.079C210.237 194.225 209.243 194.362 208.246 194.49L208.502 196.474ZM214.526 195.588C215.525 195.422 216.521 195.248 217.515 195.066L217.153 193.099C216.171 193.279 215.187 193.451 214.199 193.615L214.526 195.588ZM220.503 194.488C221.499 194.286 222.492 194.075 223.481 193.856L223.048 191.903C222.071 192.12 221.09 192.328 220.106 192.528L220.503 194.488ZM226.439 193.171C227.426 192.932 228.41 192.685 229.39 192.429L228.884 190.494C227.916 190.747 226.945 190.991 225.97 191.226L226.439 193.171ZM232.329 191.632C233.305 191.357 234.277 191.074 235.245 190.782L234.666 188.867C233.711 189.155 232.751 189.435 231.787 189.707L232.329 191.632ZM238.148 189.874C239.116 189.562 240.079 189.24 241.038 188.91L240.387 187.019C239.44 187.345 238.489 187.662 237.533 187.971L238.148 189.874ZM243.9 187.892C244.854 187.542 245.803 187.184 246.746 186.816L246.02 184.953C245.089 185.315 244.153 185.669 243.212 186.014L243.9 187.892ZM249.575 185.682C250.512 185.295 251.445 184.899 252.372 184.495L251.572 182.662C250.657 183.061 249.737 183.452 248.812 183.833L249.575 185.682ZM255.148 183.249C256.072 182.823 256.99 182.387 257.902 181.943L257.027 180.145C256.127 180.583 255.221 181.012 254.31 181.433L255.148 183.249ZM260.621 180.584C261.071 180.353 261.519 180.12 261.966 179.885L261.034 178.115C260.593 178.347 260.151 178.577 259.708 178.805L260.621 180.584ZM261.966 179.885C262.39 179.662 262.816 179.43 263.245 179.191L262.27 177.445C261.854 177.677 261.443 177.9 261.034 178.115L261.966 179.885ZM265.855 177.654C266.731 177.112 267.619 176.539 268.518 175.936L267.403 174.276C266.523 174.866 265.657 175.425 264.803 175.953L265.855 177.654ZM270.937 174.26C271.752 173.678 272.577 173.073 273.41 172.446L272.207 170.848C271.386 171.466 270.576 172.061 269.775 172.632L270.937 174.26ZM275.866 170.554C276.629 169.953 277.4 169.335 278.177 168.7L276.912 167.151C276.143 167.778 275.382 168.389 274.629 168.983L275.866 170.554ZM280.53 166.747C281.31 166.089 282.097 165.417 282.89 164.729L281.579 163.218C280.793 163.9 280.013 164.567 279.241 165.218L280.53 166.747ZM285.111 162.78C285.857 162.118 286.609 161.443 287.367 160.757L286.024 159.275C285.271 159.957 284.524 160.627 283.784 161.284L285.111 162.78ZM289.656 158.663C290.38 157.994 291.11 157.315 291.844 156.627L290.476 155.168C289.745 155.853 289.02 156.528 288.3 157.193L289.656 158.663ZM294.022 154.57C294.753 153.876 295.488 153.172 296.228 152.46L294.841 151.019C294.104 151.728 293.372 152.429 292.644 153.121L294.022 154.57ZM298.447 150.312C299.149 149.629 299.855 148.938 300.566 148.241L299.164 146.814C298.456 147.509 297.752 148.198 297.052 148.879L298.447 150.312ZM302.709 146.127C303.427 145.416 304.149 144.698 304.875 143.974L303.463 142.558C302.738 143.281 302.018 143.997 301.301 144.706L302.709 146.127ZM307.043 141.806C307.738 141.108 308.437 140.405 309.139 139.697L307.719 138.289C307.017 138.996 306.32 139.698 305.626 140.394L307.043 141.806ZM311.256 137.556C311.965 136.838 312.677 136.115 313.393 135.387L311.967 133.984C311.252 134.712 310.541 135.434 309.832 136.152L311.256 137.556ZM315.545 133.195C316.236 132.491 316.93 131.782 317.627 131.069L316.198 129.671C315.501 130.383 314.807 131.091 314.117 131.795L315.545 133.195ZM319.728 128.92C320.431 128.2 321.138 127.476 321.847 126.749L320.415 125.353C319.706 126.079 319 126.803 318.297 127.523L319.728 128.92ZM323.983 124.558C324.68 123.845 325.379 123.127 326.08 122.408L324.648 121.012C323.946 121.731 323.248 122.448 322.552 123.162L323.983 124.558ZM328.174 120.261C328.875 119.543 329.578 118.822 330.284 118.099L328.853 116.701C328.147 117.425 327.443 118.146 326.743 118.864L328.174 120.261ZM332.41 115.923C333.116 115.201 333.825 114.477 334.536 113.751L333.107 112.351C332.396 113.078 331.687 113.802 330.98 114.525L332.41 115.923ZM336.632 111.613C337.333 110.899 338.037 110.183 338.743 109.466L337.318 108.063C336.611 108.781 335.907 109.497 335.205 110.212L336.632 111.613ZM340.869 107.311C341.58 106.591 342.293 105.87 343.008 105.148L341.588 103.74C340.871 104.463 340.157 105.185 339.446 105.905L340.869 107.311ZM345.132 103.009C345.837 102.3 346.544 101.591 347.253 100.881L345.838 99.4673C345.128 100.178 344.42 100.889 343.714 101.598L345.132 103.009ZM349.388 98.7491C350.101 98.038 350.817 97.3264 351.535 96.6145L350.127 95.1942C349.408 95.9073 348.691 96.6201 347.976 97.3323L349.388 98.7491ZM353.696 94.4781C354.408 93.776 355.122 93.0737 355.838 92.3715L354.438 90.9435C353.72 91.647 353.005 92.3506 352.291 93.0541L353.696 94.4781ZM357.991 90.2668C358.711 89.5654 359.432 88.8642 360.156 88.1634L358.765 86.7267C358.039 87.429 357.316 88.1317 356.595 88.8345L357.991 90.2668ZM362.333 86.0624C363.059 85.3636 363.788 84.6653 364.518 83.9678L363.137 82.5214C362.405 83.2206 361.675 83.9205 360.947 84.6209L362.333 86.0624ZM366.699 81.8934C367.428 81.2028 368.158 80.513 368.891 79.8243L367.521 78.3672C366.786 79.0578 366.054 79.7494 365.323 80.4418L366.699 81.8934ZM371.094 77.7613C371.83 77.0748 372.568 76.3895 373.308 75.7055L371.95 74.2369C371.208 74.9229 370.468 75.6102 369.73 76.2986L371.094 77.7613ZM375.53 73.6604C376.271 72.9818 377.014 72.3046 377.758 71.6292L376.414 70.148C375.667 70.8257 374.922 71.5049 374.179 72.1857L375.53 73.6604ZM379.996 69.6079C380.744 68.936 381.494 68.2659 382.245 67.5977L380.916 66.1032C380.162 66.7736 379.41 67.446 378.66 68.1202L379.996 69.6079ZM384.504 65.5995C385.26 64.935 386.017 64.2726 386.775 63.6126L385.463 62.1037C384.701 62.7662 383.941 63.431 383.183 64.0979L384.504 65.5995ZM389.058 61.638C389.821 60.9822 390.585 60.3289 391.351 59.6783L390.057 58.154C389.288 58.8073 388.52 59.4632 387.755 60.1215L389.058 61.638ZM393.654 57.7346C394.423 57.0894 395.194 56.4471 395.966 55.8077L394.691 54.2671C393.915 54.9092 393.141 55.5543 392.369 56.2022L393.654 57.7346ZM398.298 53.8905C399.079 53.2531 399.861 52.6189 400.645 51.9881L399.391 50.4301C398.603 51.0639 397.817 51.701 397.033 52.3413L398.298 53.8905ZM403 50.1058C403.787 49.4819 404.575 48.8614 405.365 48.2447L404.134 46.6684C403.34 47.2883 402.548 47.9118 401.758 48.5388L403 50.1058ZM407.739 46.4055C408.539 45.7905 409.341 45.1794 410.144 44.5724L408.938 42.9768C408.131 43.5871 407.325 44.2015 406.52 44.8197L407.739 46.4055ZM412.562 42.7611C413.369 42.1615 414.178 41.5662 414.988 40.9754L413.81 39.3594C412.995 39.9538 412.181 40.5525 411.369 41.1554L412.562 42.7611ZM417.423 39.2163C418.237 38.6336 419.053 38.0554 419.87 37.4821L418.722 35.8448C417.899 36.4218 417.079 37.0035 416.259 37.5898L417.423 39.2163ZM422.359 35.7543C423.189 35.1834 424.022 34.6176 424.855 34.0571L423.739 32.3975C422.9 32.9618 422.062 33.5313 421.226 34.1059L422.359 35.7543ZM427.36 32.3917C428.196 31.8419 429.034 31.2976 429.873 30.7589L428.792 29.076C427.947 29.6186 427.103 30.1668 426.261 30.7205L427.36 32.3917ZM432.413 29.1477C433.27 28.611 434.128 28.0804 434.987 27.5559L433.945 25.8487C433.079 26.3773 432.214 26.912 431.351 27.4527L432.413 29.1477ZM437.569 26.0015C438.431 25.4897 439.294 24.9843 440.158 24.4855L439.159 22.7532C438.287 23.2563 437.417 23.7659 436.548 24.2818L437.569 26.0015ZM442.755 23.009C443.637 22.5153 444.52 22.0287 445.404 21.5492L444.45 19.7911C443.558 20.275 442.667 20.766 441.778 21.264L442.755 23.009ZM448.068 20.128C448.958 19.6617 449.848 19.2028 450.74 18.7515L449.837 16.967C448.937 17.4227 448.037 17.886 447.14 18.3567L448.068 20.128ZM453.419 17.4209C454.319 16.9821 455.221 16.5512 456.123 16.1286L455.275 14.3173C454.363 14.7445 453.452 15.1798 452.543 15.623L453.419 17.4209ZM458.873 14.8679C459.79 14.4562 460.709 14.0532 461.629 13.6589L460.841 11.8206C459.911 12.2194 458.982 12.627 458.054 13.0432L458.873 14.8679ZM464.392 12.5027C465.314 12.1262 466.237 11.7588 467.161 11.4005L466.438 9.53576C465.503 9.89834 464.569 10.2702 463.636 10.6511L464.392 12.5027ZM469.988 10.3349C470.933 9.98882 471.879 9.65255 472.826 9.32633L472.174 7.43539C471.215 7.76587 470.257 8.10645 469.3 8.45691L469.988 10.3349ZM475.669 8.37804C476.618 8.07213 477.568 7.77649 478.519 7.49133L477.945 5.57562C476.98 5.86476 476.017 6.16446 475.056 6.4745L475.669 8.37804ZM481.403 6.65961C482.372 6.39137 483.342 6.1342 484.313 5.88834L483.822 3.94955C482.836 4.19906 481.852 4.46 480.869 4.73211L481.403 6.65961ZM487.228 5.18493C488.2 4.96192 489.174 4.75046 490.148 4.55076L489.746 2.5915C488.757 2.79434 487.768 3.0091 486.781 3.23552L487.228 5.18493ZM493.084 3.98527C494.071 3.8075 495.058 3.64199 496.047 3.489L495.741 1.51254C494.736 1.66808 493.732 1.83631 492.729 2.01697L493.084 3.98527ZM499.014 3.06777C500.004 2.94003 500.994 2.82504 501.986 2.72303L501.781 0.733531C500.772 0.837321 499.765 0.954303 498.758 1.08422L499.014 3.06777ZM504.963 2.45613C505.957 2.38019 506.953 2.31752 507.949 2.26837L507.85 0.270799C506.836 0.320842 505.823 0.384639 504.81 0.461937L504.963 2.45613ZM510.94 2.16171C511.937 2.13983 512.935 2.13172 513.934 2.1376L513.946 0.137635C512.928 0.131641 511.912 0.13991 510.896 0.162189L510.94 2.16171ZM516.932 2.19749C517.923 2.23131 518.914 2.2791 519.906 2.34112L520.031 0.345012C519.02 0.281814 518.01 0.233111 517 0.198658L516.932 2.19749ZM522.882 2.56986C523.875 2.66047 524.867 2.76551 525.861 2.88523L526.1 0.899593C525.088 0.777563 524.075 0.670495 523.064 0.578146L522.882 2.56986ZM528.843 3.28864C529.821 3.4355 530.8 3.59678 531.779 3.77271L532.133 1.80424C531.135 1.6249 530.137 1.4605 529.14 1.31081L528.843 3.28864ZM534.696 4.34012C535.669 4.54384 536.642 4.76223 537.615 4.99551L538.081 3.05056C537.089 2.81282 536.097 2.59023 535.106 2.38259L534.696 4.34012ZM540.538 5.74023C541.499 5.99999 542.461 6.27447 543.423 6.56389L543.999 4.64865C543.019 4.35381 542.039 4.07415 541.059 3.80946L540.538 5.74023ZM546.237 7.45283C547.176 7.76347 548.115 8.08849 549.054 8.42811L549.734 6.54732C548.778 6.20152 547.822 5.87053 546.866 5.55414L546.237 7.45283ZM551.872 9.49095C552.812 9.85996 553.752 10.2438 554.692 10.6426L555.473 8.80134C554.516 8.39554 553.559 8.00494 552.603 7.62933L551.872 9.49095ZM557.391 11.8284C558.283 12.2337 559.174 12.6527 560.067 13.0855L560.94 11.2861C560.033 10.846 559.126 10.42 558.219 10.0077L557.391 11.8284ZM562.743 14.4256C563.636 14.8862 564.529 15.3609 565.421 15.8497L566.382 14.0954C565.475 13.5988 564.568 13.1165 563.661 12.6484L562.743 14.4256ZM568.089 17.3524C568.925 17.8365 569.761 18.333 570.597 18.8424L571.638 17.1343C570.789 16.6174 569.94 16.1132 569.092 15.6217L568.089 17.3524ZM573.106 20.4086C573.942 20.9435 574.778 21.4912 575.615 22.052L576.729 20.3907C575.88 19.822 575.032 19.2664 574.183 18.7237L573.106 20.4086ZM578.125 23.7734C578.961 24.3603 579.798 24.9603 580.635 25.5736L581.817 23.9606C580.969 23.3391 580.121 22.731 579.273 22.1361L578.125 23.7734ZM582.966 27.3168C583.741 27.908 584.516 28.5108 585.292 29.1252L586.534 27.5577C585.749 26.9357 584.964 26.3253 584.178 25.7264L582.966 27.3168ZM587.618 31.0035C588.393 31.6413 589.168 32.2909 589.944 32.9523L591.242 31.4308C590.457 30.7617 589.673 30.1044 588.888 29.459L587.618 31.0035ZM592.27 34.9723C593.015 35.6315 593.761 36.3019 594.507 36.9834L595.856 35.5071C595.102 34.8182 594.348 34.1404 593.594 33.4738L592.27 34.9723ZM596.646 38.9696C597.359 39.6419 598.072 40.3246 598.785 41.0177L600.179 39.5836C599.459 38.8835 598.739 38.1938 598.018 37.5145L596.646 38.9696ZM600.924 43.1282C601.637 43.8422 602.349 44.5667 603.062 45.3017L604.498 43.9097C603.778 43.1676 603.059 42.4362 602.339 41.7152L600.924 43.1282ZM605.199 47.5387C605.555 47.9168 605.911 48.2975 606.267 48.6809L607.733 47.32C607.374 46.9331 607.014 46.549 606.655 46.1675L605.199 47.5387ZM606.267 48.6809C606.609 49.0495 606.951 49.4181 607.291 49.7865L608.76 48.4298C608.419 48.06 608.076 47.69 607.733 47.32L606.267 48.6809ZM609.32 51.9961C609.992 52.7322 610.66 53.4679 611.324 54.203L612.808 52.8622C612.142 52.1245 611.471 51.3863 610.797 50.6475L609.32 51.9961ZM613.315 56.4175C613.984 57.1663 614.65 57.9146 615.312 58.6621L616.809 57.3363C616.145 56.5863 615.477 55.8357 614.805 55.0843L613.315 56.4175ZM617.286 60.9024C617.941 61.6491 618.592 62.3951 619.24 63.1401L620.749 61.828C620.1 61.0808 619.446 60.3326 618.79 59.5836L617.286 60.9024ZM621.208 65.4148C621.861 66.1721 622.51 66.9283 623.156 67.6835L624.676 66.3839C624.029 65.6267 623.378 64.8685 622.724 64.1091L621.208 65.4148ZM625.082 69.9456C625.733 70.7121 626.38 71.4775 627.023 72.2415L628.553 70.9528C627.908 70.1871 627.259 69.42 626.607 68.6516L625.082 69.9456ZM628.948 74.533C629.586 75.2955 630.221 76.0566 630.853 76.8161L632.391 75.5368C631.757 74.7758 631.121 74.0133 630.481 73.2492L628.948 74.533ZM632.772 79.128C633.411 79.8992 634.046 80.6687 634.679 81.4365L636.222 80.1646C635.589 79.3957 634.952 78.625 634.313 77.8525L632.772 79.128ZM636.569 83.7345C637.207 84.5112 637.841 85.2859 638.474 86.0586L640.022 84.7921C639.389 84.0187 638.753 83.2431 638.115 82.4656L636.569 83.7345ZM640.369 88.3777C640.998 89.1487 641.625 89.9175 642.249 90.6841L643.8 89.4208C643.175 88.6539 642.548 87.8846 641.918 87.1131L640.369 88.3777ZM644.148 93.0162C644.781 93.7929 645.411 94.567 646.039 95.3388L647.59 94.0763C646.962 93.3047 646.332 92.5304 645.699 91.7536L644.148 93.0162ZM647.917 97.6462C648.553 98.4273 649.188 99.2057 649.82 99.9812L651.37 98.7169C650.738 97.9419 650.104 97.164 649.468 96.3832L647.917 97.6462ZM651.714 102.299C652.345 103.071 652.975 103.84 653.604 104.606L655.15 103.337C654.522 102.573 653.893 101.804 653.262 101.033L651.714 102.299ZM655.517 106.932C656.153 107.703 656.788 108.472 657.422 109.237L658.962 107.96C658.329 107.197 657.695 106.43 657.06 105.659L655.517 106.932ZM659.335 111.537C659.98 112.309 660.624 113.078 661.267 113.842L662.798 112.555C662.156 111.792 661.514 111.026 660.871 110.255L659.335 111.537ZM663.195 116.125C663.845 116.89 664.494 117.652 665.143 118.409L666.662 117.108C666.015 116.353 665.368 115.594 664.72 114.831L663.195 116.125ZM667.105 120.684C667.758 121.438 668.412 122.188 669.066 122.933L670.569 121.613C669.918 120.871 669.267 120.125 668.616 119.374L667.105 120.684ZM671.063 125.191C671.73 125.94 672.397 126.684 673.065 127.424L674.549 126.082C673.884 125.347 673.22 124.607 672.557 123.861L671.063 125.191ZM675.083 129.637C675.765 130.378 676.447 131.115 677.131 131.846L678.591 130.479C677.912 129.753 677.233 129.021 676.555 128.283L675.083 129.637ZM679.188 134.021C679.882 134.749 680.579 135.471 681.277 136.187L682.709 134.791C682.016 134.08 681.324 133.363 680.634 132.64L679.188 134.021ZM683.388 138.328C684.095 139.037 684.804 139.739 685.516 140.436L686.914 139.006C686.209 138.316 685.505 137.619 684.804 136.915L683.388 138.328ZM687.685 142.532C688.411 143.224 689.14 143.909 689.871 144.588L691.231 143.121C690.507 142.449 689.785 141.77 689.065 141.084L687.685 142.532ZM692.094 146.618C692.841 147.291 693.592 147.957 694.346 148.615L695.661 147.109C694.915 146.457 694.172 145.798 693.432 145.132L692.094 146.618ZM696.624 150.571C697.394 151.221 698.168 151.863 698.946 152.497L700.21 150.947C699.441 150.32 698.676 149.685 697.914 149.043L696.624 150.571ZM701.294 154.376C702.085 154.998 702.881 155.611 703.681 156.215L704.887 154.619C704.096 154.022 703.311 153.417 702.53 152.803L701.294 154.376ZM706.103 158.008C706.917 158.597 707.735 159.178 708.559 159.75L709.699 158.107C708.887 157.543 708.08 156.97 707.277 156.388L706.103 158.008ZM711.054 161.443C711.892 161.998 712.735 162.545 713.585 163.082L714.653 161.391C713.816 160.862 712.985 160.324 712.16 159.776L711.054 161.443ZM716.15 164.663C717.011 165.181 717.878 165.689 718.753 166.188L719.743 164.451C718.883 163.96 718.028 163.459 717.18 162.949L716.15 164.663ZM721.39 167.651C722.273 168.128 723.162 168.594 724.059 169.051L724.966 167.268C724.084 166.819 723.208 166.36 722.34 165.891L721.39 167.651ZM726.771 170.391C727.673 170.822 728.582 171.244 729.499 171.656L730.318 169.832C729.417 169.427 728.522 169.012 727.635 168.587L726.771 170.391ZM732.27 172.861C733.194 173.249 734.126 173.627 735.065 173.995L735.794 172.132C734.87 171.771 733.953 171.399 733.044 171.017L732.27 172.861ZM737.882 175.058C738.829 175.402 739.784 175.735 740.748 176.059L741.384 174.163C740.436 173.845 739.497 173.516 738.565 173.178L737.882 175.058ZM743.6 176.978C744.558 177.274 745.523 177.56 746.498 177.835L747.042 175.911C746.083 175.64 745.133 175.359 744.191 175.067L743.6 176.978ZM749.416 178.624C750.379 178.871 751.35 179.109 752.329 179.337L752.783 177.389C751.818 177.165 750.862 176.931 749.915 176.687L749.416 178.624ZM755.293 179.991C756.267 180.194 757.248 180.388 758.238 180.571L758.603 178.605C757.627 178.424 756.66 178.233 755.702 178.033L755.293 179.991ZM761.201 181.087C762.197 181.25 763.201 181.402 764.215 181.545L764.494 179.565C763.495 179.424 762.505 179.274 761.523 179.113L761.201 181.087ZM767.168 181.931C768.159 182.05 769.157 182.16 770.164 182.261L770.363 180.27C769.369 180.171 768.384 180.063 767.407 179.945L767.168 181.931ZM773.2 182.533C774.179 182.612 775.167 182.682 776.163 182.743L776.285 180.746C775.302 180.686 774.326 180.617 773.359 180.54L773.2 182.533ZM779.174 182.9C780.182 182.943 781.197 182.978 782.221 183.003L782.272 181.004C781.259 180.979 780.255 180.944 779.26 180.902L779.174 182.9ZM785.186 183.053C786.181 183.062 787.185 183.062 788.196 183.054L788.18 181.054C787.18 181.062 786.187 181.062 785.203 181.053L785.186 183.053ZM791.253 183.005C792.232 182.981 793.219 182.95 794.213 182.911L794.134 180.913C793.151 180.951 792.174 180.982 791.205 181.005L791.253 183.005ZM797.208 182.772C798.214 182.718 799.227 182.656 800.247 182.587L800.112 180.591C799.1 180.66 798.097 180.721 797.1 180.775L797.208 182.772ZM803.229 182.363C804.211 182.283 805.2 182.196 806.196 182.101L806.008 180.11C805.02 180.204 804.039 180.29 803.066 180.37L803.229 182.363ZM809.206 181.796C810.207 181.689 811.215 181.574 812.23 181.452L811.992 179.466C810.985 179.587 809.985 179.701 808.992 179.808L809.206 181.796ZM815.16 181.083C816.143 180.953 817.133 180.817 818.129 180.675L817.846 178.695C816.857 178.836 815.874 178.971 814.899 179.1L815.16 181.083ZM821.138 180.227C821.643 180.149 822.15 180.069 822.658 179.988L822.342 178.013C821.837 178.093 821.334 178.173 820.833 178.25L821.138 180.227ZM822.658 179.988C823.098 179.917 823.547 179.855 824.005 179.801L823.771 177.815C823.286 177.872 822.81 177.938 822.342 178.013L822.658 179.988ZM826.868 179.573C827.859 179.529 828.885 179.517 829.945 179.537L829.982 177.537C828.883 177.517 827.815 177.529 826.78 177.575L826.868 179.573ZM832.778 179.658C833.734 179.722 834.713 179.807 835.714 179.916L835.928 177.927C834.902 177.816 833.895 177.728 832.91 177.663L832.778 179.658ZM838.781 180.306C839.71 180.442 840.656 180.595 841.617 180.765L841.965 178.795C840.985 178.622 840.02 178.466 839.07 178.327L838.781 180.306ZM844.506 181.316C845.484 181.517 846.476 181.733 847.481 181.965L847.931 180.017C846.91 179.781 845.902 179.561 844.907 179.357L844.506 181.316ZM850.394 182.673C851.322 182.909 852.26 183.158 853.207 183.419L853.738 181.491C852.779 181.226 851.828 180.974 850.888 180.735L850.394 182.673ZM856.079 184.239C857.046 184.524 858.022 184.822 859.006 185.131L859.606 183.223C858.611 182.91 857.624 182.609 856.646 182.32L856.079 184.239ZM861.829 186.043C862.749 186.348 863.675 186.663 864.608 186.987L865.265 185.098C864.323 184.771 863.388 184.453 862.458 184.145L861.829 186.043ZM867.426 187.989C868.371 188.333 869.322 188.686 870.279 189.048L870.987 187.178C870.022 186.813 869.063 186.456 868.109 186.11L867.426 187.989ZM873.075 190.127C873.981 190.483 874.891 190.847 875.805 191.219L876.558 189.366C875.637 188.991 874.719 188.625 873.806 188.266L873.075 190.127ZM878.56 192.357C879.482 192.744 880.407 193.139 881.336 193.541L882.131 191.706C881.195 191.301 880.263 190.903 879.334 190.513L878.56 192.357ZM884.126 194.767C885.016 195.164 885.91 195.567 886.805 195.977L887.638 194.159C886.736 193.746 885.837 193.34 884.94 192.94L884.126 194.767ZM889.499 197.227C890.399 197.65 891.301 198.079 892.205 198.514L893.073 196.712C892.163 196.274 891.255 195.842 890.349 195.417L889.499 197.227ZM894.922 199.839C895.817 200.281 896.713 200.728 897.611 201.182L898.513 199.396C897.61 198.94 896.708 198.49 895.807 198.046L894.922 199.839ZM900.25 202.529C901.13 202.984 902.011 203.444 902.893 203.91L903.827 202.141C902.94 201.673 902.053 201.21 901.167 200.752L900.25 202.529ZM905.54 205.322C906.423 205.798 907.306 206.279 908.189 206.765L909.153 205.013C908.265 204.524 907.377 204.04 906.489 203.561L905.54 205.322ZM910.804 208.22C911.668 208.705 912.531 209.194 913.393 209.689L914.388 207.954C913.52 207.456 912.652 206.964 911.784 206.476L910.804 208.22ZM915.979 211.186C916.841 211.689 917.701 212.197 918.561 212.71L919.585 210.992C918.72 210.476 917.855 209.966 916.989 209.459L915.979 211.186ZM921.136 214.26C921.987 214.777 922.838 215.299 923.687 215.825L924.74 214.125C923.886 213.596 923.031 213.071 922.175 212.551L921.136 214.26ZM926.22 217.409C927.062 217.941 927.903 218.477 928.742 219.017L929.824 217.335C928.98 216.792 928.135 216.253 927.287 215.718L926.22 217.409ZM931.251 220.648C932.086 221.195 932.918 221.746 933.748 222.301L934.859 220.638C934.025 220.08 933.188 219.526 932.348 218.975L931.251 220.648ZM936.231 223.977C937.057 224.54 937.88 225.106 938.7 225.675L939.841 224.033C939.016 223.46 938.188 222.89 937.358 222.324L936.231 223.977ZM941.15 227.394C941.963 227.97 942.773 228.549 943.58 229.132L944.751 227.511C943.939 226.924 943.124 226.341 942.306 225.762L941.15 227.394ZM945.989 230.889C946.795 231.483 947.598 232.08 948.396 232.68L949.598 231.082C948.794 230.478 947.987 229.877 947.175 229.279L945.989 230.889ZM950.789 234.497C951.582 235.106 952.371 235.717 953.155 236.331L954.388 234.757C953.599 234.138 952.805 233.523 952.006 232.91L950.789 234.497ZM955.492 238.182C956.267 238.801 957.036 239.423 957.8 240.048L959.066 238.499C958.296 237.87 957.522 237.244 956.742 236.62L955.492 238.182ZM960.12 241.965C960.892 242.611 961.658 243.258 962.418 243.908L963.718 242.389C962.952 241.734 962.18 241.081 961.403 240.431L960.12 241.965ZM964.68 245.866C965.427 246.521 966.169 247.178 966.903 247.837L968.239 246.348C967.498 245.683 966.751 245.021 965.997 244.361L964.68 245.866ZM969.088 249.82C969.834 250.507 970.574 251.196 971.306 251.888L972.679 250.433C971.941 249.736 971.195 249.041 970.441 248.348L969.088 249.82ZM973.479 253.968C974.196 254.663 974.904 255.36 975.605 256.059L977.018 254.644C976.311 253.938 975.595 253.234 974.872 252.533L973.479 253.968ZM977.68 258.161C978.375 258.875 979.061 259.591 979.738 260.309L981.192 258.936C980.508 258.211 979.815 257.488 979.113 256.766L977.68 258.161ZM981.799 262.53C982.476 263.272 983.143 264.015 983.799 264.76L985.3 263.437C984.636 262.684 983.961 261.932 983.276 261.182L981.799 262.53ZM985.736 266.997C986.371 267.744 986.995 268.492 987.608 269.24L989.155 267.974C988.535 267.215 987.903 266.458 987.26 265.702L985.736 266.997ZM989.51 271.615C990.133 272.41 990.743 273.205 991.34 274.001L992.94 272.802C992.335 271.994 991.716 271.187 991.084 270.381L989.51 271.615ZM993.088 276.391C993.657 277.188 994.213 277.985 994.753 278.783L996.409 277.66C995.859 276.849 995.294 276.038 994.716 275.229L993.088 276.391ZM996.414 281.304C996.96 282.156 997.488 283.008 997.999 283.86L999.714 282.832C999.193 281.963 998.655 281.094 998.099 280.226L996.414 281.304ZM999.478 286.415C999.954 287.266 1000.41 288.116 1000.85 288.965L1002.63 288.047C1002.18 287.178 1001.71 286.308 1001.22 285.439L999.478 286.415ZM1002.19 291.677C1002.62 292.587 1003.03 293.496 1003.41 294.403L1005.25 293.623C1004.86 292.691 1004.44 291.758 1004 290.825L1002.19 291.677ZM1004.5 297.119C1004.84 298.039 1005.16 298.957 1005.46 299.872L1007.36 299.255C1007.06 298.31 1006.72 297.364 1006.37 296.417L1004.5 297.119ZM1006.31 302.751C1006.57 303.708 1006.8 304.662 1007 305.613L1008.96 305.2C1008.75 304.213 1008.51 303.224 1008.24 302.233L1006.31 302.751ZM1007.51 308.454C1007.66 309.439 1007.78 310.421 1007.87 311.397L1009.86 311.225C1009.77 310.204 1009.65 309.181 1009.49 308.155L1007.51 308.454ZM1008.02 314.334C1008.04 315.308 1008.02 316.277 1007.97 317.242L1009.97 317.346C1010.02 316.334 1010.04 315.317 1010.02 314.296L1008.02 314.334ZM1007.71 320.141C1007.59 321.106 1007.43 322.066 1007.24 323.02L1009.19 323.423C1009.4 322.418 1009.57 321.408 1009.7 320.393L1007.71 320.141ZM1006.53 325.866C1006.27 326.791 1005.96 327.71 1005.62 328.624L1007.5 329.324C1007.85 328.363 1008.17 327.394 1008.46 326.42L1006.53 325.866ZM1004.51 331.284C1004.11 332.166 1003.66 333.041 1003.18 333.911L1004.93 334.88C1005.44 333.968 1005.9 333.048 1006.33 332.122L1004.51 331.284ZM1001.64 336.472C1001.13 337.25 1000.6 338.023 1000.03 338.79L1001.63 339.984C1002.23 339.183 1002.79 338.376 1003.32 337.562L1001.64 336.472ZM998.213 341.077C997.576 341.834 996.905 342.585 996.2 343.33L997.653 344.704C998.384 343.932 999.08 343.152 999.743 342.365L998.213 341.077ZM994.115 345.42C993.442 346.061 992.743 346.697 992.017 347.328L993.328 348.838C994.077 348.187 994.799 347.531 995.494 346.869L994.115 345.42ZM989.756 349.206C988.975 349.827 988.166 350.443 987.33 351.053L988.508 352.669C989.367 352.043 990.197 351.41 991 350.771L989.756 349.206ZM984.833 352.803C984.069 353.317 983.285 353.827 982.479 354.332L983.543 356.026C984.366 355.509 985.168 354.988 985.95 354.462L984.833 352.803ZM979.999 355.836C979.151 356.334 978.281 356.826 977.39 357.314L978.351 359.068C979.259 358.571 980.145 358.069 981.01 357.562L979.999 355.836ZM974.651 358.765C973.765 359.22 972.858 359.67 971.932 360.115L972.799 361.918C973.74 361.465 974.661 361.007 975.563 360.545L974.651 358.765ZM969.383 361.308C968.518 361.702 967.635 362.093 966.737 362.479L967.528 364.316C968.439 363.924 969.333 363.528 970.212 363.128L969.383 361.308ZM963.991 363.629C963.06 364.008 962.111 364.384 961.146 364.756L961.865 366.622C962.842 366.246 963.802 365.865 964.746 365.481L963.991 363.629ZM958.2 365.86C957.288 366.193 956.362 366.522 955.421 366.848L956.076 368.737C957.026 368.408 957.963 368.075 958.885 367.739L958.2 365.86ZM952.737 367.756C951.83 368.056 950.91 368.353 949.977 368.647L950.579 370.554C951.52 370.258 952.449 369.958 953.365 369.655L952.737 367.756ZM947.141 369.519C946.183 369.807 945.212 370.092 944.228 370.374L944.778 372.296C945.77 372.012 946.75 371.725 947.716 371.435L947.141 369.519ZM941.236 371.209C940.226 371.485 939.203 371.757 938.167 372.026L938.669 373.962C939.713 373.691 940.744 373.417 941.762 373.139L941.236 371.209ZM935.411 372.726C934.497 372.954 933.573 373.178 932.64 373.401L933.103 375.346C934.043 375.123 934.973 374.896 935.893 374.667L935.411 372.726ZM929.809 374.06C928.856 374.278 927.892 374.493 926.919 374.705L927.345 376.659C928.325 376.445 929.294 376.229 930.254 376.01L929.809 374.06ZM923.968 375.335C922.975 375.542 921.971 375.747 920.957 375.949L921.348 377.911C922.368 377.707 923.378 377.501 924.377 377.293L923.968 375.335ZM917.885 376.549C916.866 376.743 915.838 376.934 914.799 377.123L915.157 379.091C916.201 378.901 917.235 378.708 918.259 378.513L917.885 376.549ZM912.024 377.618C911.091 377.781 910.15 377.942 909.202 378.101L909.532 380.074C910.485 379.914 911.431 379.752 912.368 379.588L912.024 377.618ZM906.332 378.572C905.368 378.727 904.396 378.879 903.415 379.03L903.719 381.007C904.704 380.856 905.681 380.702 906.649 380.547L906.332 378.572ZM900.451 379.476C899.454 379.623 898.45 379.767 897.438 379.91L897.716 381.89C898.733 381.747 899.741 381.602 900.742 381.455L900.451 379.476ZM894.377 380.33C893.348 380.469 892.312 380.605 891.267 380.738L891.521 382.722C892.57 382.588 893.611 382.451 894.643 382.313L894.377 380.33ZM888.176 381.125C887.245 381.239 886.309 381.351 885.366 381.462L885.598 383.448C886.545 383.337 887.485 383.225 888.419 383.111L888.176 381.125ZM882.518 381.788C881.562 381.895 880.6 382 879.632 382.104L879.844 384.092C880.816 383.988 881.781 383.883 882.74 383.775L882.518 381.788ZM876.707 382.409C875.726 382.509 874.739 382.608 873.745 382.705L873.938 384.695C874.935 384.598 875.926 384.499 876.91 384.399L876.707 382.409ZM870.743 382.989C869.736 383.083 868.723 383.174 867.703 383.264L867.878 385.256C868.901 385.166 869.918 385.074 870.928 384.981L870.743 382.989ZM864.624 383.528C863.591 383.614 862.552 383.698 861.506 383.781L861.663 385.775C862.712 385.692 863.754 385.607 864.79 385.521L864.624 383.528ZM858.348 384.023C857.408 384.094 856.464 384.162 855.514 384.23L855.655 386.225C856.607 386.157 857.555 386.088 858.497 386.018L858.348 384.023ZM852.658 384.426C851.7 384.491 850.738 384.553 849.77 384.615L849.897 386.611C850.867 386.549 851.832 386.486 852.791 386.422L852.658 384.426ZM846.852 384.794C845.874 384.853 844.891 384.91 843.902 384.966L844.014 386.962C845.005 386.907 845.991 386.85 846.971 386.791L846.852 384.794ZM840.921 385.128C839.922 385.181 838.917 385.232 837.908 385.281L838.006 387.279C839.018 387.229 840.025 387.178 841.026 387.125L840.921 385.128ZM834.863 385.426C833.843 385.473 832.818 385.518 831.787 385.562L831.872 387.56C832.905 387.516 833.932 387.471 834.955 387.424L834.863 385.426ZM828.679 385.689C827.637 385.73 826.59 385.769 825.538 385.807L825.61 387.805C826.664 387.768 827.713 387.728 828.757 387.687L828.679 385.689ZM822.52 385.911C821.574 385.942 820.623 385.972 819.668 386L819.728 387.999C820.685 387.971 821.638 387.941 822.586 387.909L822.52 385.911ZM816.79 386.083C815.827 386.109 814.859 386.134 813.887 386.158L813.936 388.157C814.91 388.133 815.88 388.108 816.845 388.082L816.79 386.083ZM810.958 386.226C809.977 386.247 808.992 386.267 808.002 386.286L808.04 388.286C809.032 388.267 810.018 388.247 811.001 388.225L810.958 386.226ZM805.021 386.339C804.023 386.355 803.02 386.371 802.013 386.385L802.041 388.384C803.049 388.37 804.054 388.355 805.054 388.339L805.021 386.339ZM798.979 386.423C797.964 386.434 796.944 386.444 795.919 386.453L795.937 388.453C796.963 388.444 797.984 388.434 799.002 388.422L798.979 386.423ZM792.833 386.476C791.799 386.482 790.762 386.488 789.72 386.491L789.727 388.491C790.771 388.487 791.81 388.482 792.845 388.476L792.833 386.476Z" fill="#717171"/>
</svg>
